<?xml version="1.0" encoding="UTF-8"?>
<svg width="24px" height="24px" viewBox="0 0 24 24" version="1.1" xmlns="http://www.w3.org/2000/svg" xmlns:xlink="http://www.w3.org/1999/xlink">
    <!-- Generator: Sketch 63.1 (92452) - https://sketch.com -->
    <title>icon-close-on-light</title>
    <desc>Created with Sketch.</desc>
    <g id="@-main" stroke="none" stroke-width="1" fill="none" fill-rule="evenodd">
        <g id="Desktop-Copy-3" fill="#FFFFFF">
            <path d="M12,1 C18.0751322,1 23,5.92486775 23,12 C23,18.0751322 18.0751322,23 12,23 C5.92486775,23 1,18.0751322 1,12 C1,5.92486775 5.92486775,1 12,1 Z M9.17157288,6.34314575 C8.39052429,5.56209717 7.12419433,5.56209717 6.34314575,6.34314575 C5.56209717,7.12419433 5.56209717,8.39052429 6.34314575,9.17157288 L6.34314575,9.17157288 L9.17157288,12 L6.34314575,14.8284271 C5.56209717,15.6094757 5.56209717,16.8758057 6.34314575,17.6568542 C7.12419433,18.4379028 8.39052429,18.4379028 9.17157288,17.6568542 L9.17157288,17.6568542 L12,14.8284271 L14.8284271,17.6568542 C15.6094757,18.4379028 16.8758057,18.4379028 17.6568542,17.6568542 C18.4379028,16.8758057 18.4379028,15.6094757 17.6568542,14.8284271 L17.6568542,14.8284271 L14.8284271,12 L17.6568542,9.17157288 C18.4379028,8.39052429 18.4379028,7.12419433 17.6568542,6.34314575 C16.8758057,5.56209717 15.6094757,5.56209717 14.8284271,6.34314575 L14.8284271,6.34314575 L12.0007071,9.17086577 Z" id="Combined-Shape"></path>
        </g>
    </g>
</svg>