<?xml version="1.0" encoding="UTF-8"?>
<svg width="24px" height="24px" viewBox="0 0 24 24" version="1.1" xmlns="http://www.w3.org/2000/svg" xmlns:xlink="http://www.w3.org/1999/xlink">
    <!-- Generator: Sketch 63.1 (92452) - https://sketch.com -->
    <title>icon-reset-on-light</title>
    <desc>Created with Sketch.</desc>
    <g id="@-main" stroke="none" stroke-width="1" fill="none" fill-rule="evenodd">
        <g id="Desktop-Copy-9" fill="#000000" fill-rule="nonzero">
            <path d="M22,1 C23.1045695,1 24,1.8954305 24,3 C24,4.1045695 23.1045695,5 22,5 L22,5 L19.552483,4.99979696 C20.1801014,5.59317481 20.7426147,6.26558295 21.2253762,7.00897061 C24.5341304,12.1040052 23.086064,18.9166221 17.9910294,22.2253762 C12.8959948,25.5341304 6.08337792,24.086064 2.77462375,18.9910294 C-0.534130412,13.8959948 0.913936002,7.08337792 6.00897061,3.77462375 C6.93534054,3.17303209 8.17399815,3.43631689 8.77558982,4.36268682 C9.34983641,5.24694902 9.13604473,6.41575434 8.30972094,7.0434112 L8.18752675,7.12930602 C4.945232,9.23487686 4.02373519,13.5701785 6.12930602,16.8124732 C8.23487686,20.054768 12.5701785,20.9762648 15.8124732,18.870694 C19.054768,16.7651231 19.9762648,12.4298215 17.870694,9.18752675 C17.3680245,8.4134837 16.731504,7.76142358 16.000049,7.25246183 L16,11 C16,12.1045695 15.1045695,13 14,13 C12.8954305,13 12,12.1045695 12,11 L12,11 L12,3 C12,1.8954305 12.8954305,1 14,1 L14,1 Z" id="Combined-Shape"></path>
        </g>
    </g>
</svg>