<?xml version="1.0" encoding="UTF-8"?>
<svg width="72px" height="72px" viewBox="0 0 72 72" version="1.1" xmlns="http://www.w3.org/2000/svg" xmlns:xlink="http://www.w3.org/1999/xlink">
    <!-- Generator: Sketch 63.1 (92452) - https://sketch.com -->
    <title>icon-sun</title>
    <desc>Created with Sketch.</desc>
    <g id="Page-1" stroke="none" stroke-width="1" fill="none" fill-rule="evenodd">
        <g id="Desktop" fill="#FFFFFF" fill-rule="nonzero">
            <g id="icon-sun">
                <path d="M36,61.1234043 C36.8461437,61.1234043 37.5319149,61.8091755 37.5319149,62.6553191 L37.5319149,62.6553191 L37.5319149,70.4680851 C37.5319149,71.3142288 36.8461437,72 36,72 C35.1538563,72 34.4680851,71.3142288 34.4680851,70.4680851 L34.4680851,70.4680851 L34.4680851,62.6553191 C34.4680851,61.8091755 35.1538563,61.1234043 36,61.1234043 Z M16.0456118,53.788165 C16.4315825,53.3986038 16.9970745,53.2448138 17.5278591,53.3860373 C18.0580452,53.5278591 18.4721409,53.9419548 18.6139627,54.4721409 C18.7551862,55.0029255 18.6013962,55.5684175 18.211835,55.9543882 L18.211835,55.9543882 L12.777726,61.3884974 C12.391157,61.778657 11.8256648,61.9318484 11.2954787,61.790625 C10.7652926,61.6494016 10.3505984,61.2347074 10.209375,60.7045213 C10.0681516,60.1743352 10.221343,59.608843 10.6115026,59.222274 L10.6115026,59.222274 Z M54.4721409,53.3860373 C55.0029255,53.2448138 55.5684175,53.3986038 55.9543882,53.788165 L55.9543882,53.788165 L61.3884974,59.222274 C61.9827128,59.8212766 61.9803191,60.7876995 61.3837101,61.3837101 C60.7876995,61.9803191 59.8212766,61.9827128 59.222274,61.3884974 L59.222274,61.3884974 L53.788165,55.9543882 C53.3986038,55.5684175 53.2448138,55.0029255 53.3860373,54.4721409 C53.5278591,53.9419548 53.9419548,53.5278591 54.4721409,53.3860373 Z M36,16.0246676 C47.0267953,16.037234 55.962766,24.9732047 55.9753324,36 C55.9753324,47.0321809 47.0321809,55.9753324 36,55.9753324 C24.9678191,55.9753324 16.0246676,47.0321809 16.0246676,36 C16.0246676,24.9678191 24.9678191,16.0246676 36,16.0246676 Z M36,19.0884974 C26.6601064,19.0884974 19.0884974,26.6601064 19.0884974,36 C19.0884974,45.3398936 26.6601064,52.9115026 36,52.9115026 C45.3357047,52.9007314 52.9007314,45.3357047 52.9115026,36 C52.9115026,26.6601064 45.3398936,19.0884974 36,19.0884974 Z M70.4680851,34.4680851 C71.3142288,34.4680851 72,35.1538563 72,36 C72,36.8461437 71.3142288,37.5319149 70.4680851,37.5319149 L70.4680851,37.5319149 L62.6553191,37.5319149 C61.8091755,37.5319149 61.1234043,36.8461437 61.1234043,36 C61.1234043,35.1538563 61.8091755,34.4680851 62.6553191,34.4680851 L62.6553191,34.4680851 Z M9.34468085,34.4680851 C10.1908245,34.4680851 10.8765957,35.1538563 10.8765957,36 C10.8765957,36.8461437 10.1908245,37.5319149 9.34468085,37.5319149 L9.34468085,37.5319149 L1.53191489,37.5319149 C0.6857712,37.5319149 -1.0658141e-14,36.8461437 -1.0658141e-14,36 C-1.0658141e-14,35.1538563 0.6857712,34.4680851 1.53191489,34.4680851 L1.53191489,34.4680851 Z M59.222274,10.6115026 C59.8212766,10.0172872 60.7876995,10.0196809 61.3837101,10.6162899 C61.9803191,11.2123005 61.9827128,12.1787234 61.3884974,12.777726 L61.3884974,12.777726 L55.9543882,18.211835 C55.5684175,18.6013962 55.0029255,18.7551862 54.4721409,18.6139627 C53.9419548,18.4721409 53.5278591,18.0580452 53.3860373,17.5278591 C53.2448138,16.9970745 53.3986038,16.4315825 53.788165,16.0456118 L53.788165,16.0456118 Z M10.6162899,10.6162899 C11.2123005,10.0196809 12.1787234,10.0172872 12.777726,10.6115026 L12.777726,10.6115026 L18.211835,16.0456118 C18.6013962,16.4315825 18.7551862,16.9970745 18.6139627,17.5278591 C18.4721409,18.0580452 18.0580452,18.4721409 17.5278591,18.6139627 C16.9970745,18.7551862 16.4315825,18.6013962 16.0456118,18.211835 L16.0456118,18.211835 L10.6115026,12.777726 C10.0172872,12.1787234 10.0196809,11.2123005 10.6162899,10.6162899 Z M36,-1.0658141e-14 C36.8461437,-1.0658141e-14 37.5319149,0.6857712 37.5319149,1.53191489 L37.5319149,1.53191489 L37.5319149,9.34468085 C37.5319149,10.1908245 36.8461437,10.8765957 36,10.8765957 C35.1538563,10.8765957 34.4680851,10.1908245 34.4680851,9.34468085 L34.4680851,9.34468085 L34.4680851,1.53191489 C34.4680851,0.6857712 35.1538563,-1.0658141e-14 36,-1.0658141e-14 Z" id="Combined-Shape"></path>
            </g>
        </g>
    </g>
</svg>